<?xml version="1.0" encoding="UTF-8" standalone="no"?>
<!-- Created with Inkscape (http://www.inkscape.org/) -->

<svg
   xmlns:osb="http://www.openswatchbook.org/uri/2009/osb"
   xmlns:dc="http://purl.org/dc/elements/1.1/"
   xmlns:cc="http://creativecommons.org/ns#"
   xmlns:rdf="http://www.w3.org/1999/02/22-rdf-syntax-ns#"
   xmlns:svg="http://www.w3.org/2000/svg"
   xmlns="http://www.w3.org/2000/svg"
   xmlns:sodipodi="http://sodipodi.sourceforge.net/DTD/sodipodi-0.dtd"
   xmlns:inkscape="http://www.inkscape.org/namespaces/inkscape"
   width="400"
   height="400"
   id="svg2"
   version="1.1"
   inkscape:version="0.48.2 r9819"
   sodipodi:docname="contact.svg">
  <defs
     id="defs4">
    <linearGradient
       id="linearGradient5199"
       osb:paint="solid">
      <stop
         style="stop-color:#00aa44;stop-opacity:1;"
         offset="0"
         id="stop5201" />
    </linearGradient>
  </defs>
  <sodipodi:namedview
     id="base"
     pagecolor="#ffffff"
     bordercolor="#666666"
     borderopacity="1.0"
     inkscape:pageopacity="0.0"
     inkscape:pageshadow="2"
     inkscape:zoom="1.4142136"
     inkscape:cx="189.15922"
     inkscape:cy="244.59716"
     inkscape:document-units="px"
     inkscape:current-layer="text5223"
     showgrid="false"
     inkscape:window-width="1296"
     inkscape:window-height="754"
     inkscape:window-x="4"
     inkscape:window-y="0"
     inkscape:window-maximized="0" />
  <metadata
     id="metadata7">
    <rdf:RDF>
      <cc:Work
         rdf:about="">
        <dc:format>image/svg+xml</dc:format>
        <dc:type
           rdf:resource="http://purl.org/dc/dcmitype/StillImage" />
        <dc:title></dc:title>
      </cc:Work>
    </rdf:RDF>
  </metadata>
  <g
     inkscape:label="レイヤー 1"
     inkscape:groupmode="layer"
     id="layer1"
     transform="translate(0,-652.3622)">
    <rect
       style="opacity:0.80666665;fill:#00aa44;fill-opacity:1;fill-rule:nonzero;stroke:none"
       id="rect2985"
       width="290.8157"
       height="90.774857"
       x="52.951992"
       y="765.22754"
       ry="11.767109" />
    <flowRoot
       xml:space="preserve"
       id="flowRoot5213"
       style="font-size:40px;font-style:normal;font-weight:normal;line-height:125%;letter-spacing:0px;word-spacing:0px;fill:#000000;fill-opacity:1;stroke:none;font-family:Sans"
       transform="translate(0,652.3622)"><flowRegion
         id="flowRegion5215"><rect
           id="rect5217"
           width="105.06348"
           height="44.546913"
           x="100.02043"
           y="136.92105" /></flowRegion><flowPara
         id="flowPara5219">Caaa</flowPara><flowPara
         id="flowPara5221" /></flowRoot>    <g
       style="font-size:40px;font-style:normal;font-weight:normal;line-height:125%;letter-spacing:0px;word-spacing:0px;fill:#000000;fill-opacity:1;stroke:none;font-family:Sans"
       id="text5223">
      <g
         id="g5929"
         transform="translate(-0.02101205,-2)">
        <path
           inkscape:connector-curvature="0"
           id="path5776"
           d="m 126.84375,778.53125 c -5.95804,-0.41828 -8.90288,5.65865 -8.1875,10.90625 0.76897,6.00818 -2.27849,15.05015 3.75,19.0625 4.16544,1.78786 9.11639,1.34223 13.21875,-0.46875 -0.0565,-5.77797 -4.0662,-3.23444 -7.90625,-3.5 -5.35287,0.56792 -2.908,-6.60316 -3.46875,-9.625 1.00303,-3.2471 -1.85488,-8.85146 1.375,-11.03125 2.70281,-0.75482 5.64087,-0.40069 8.3125,0.34375 1.12747,-3.01117 1.32849,-5.78448 -2.5625,-5.59375 -1.50082,-0.19066 -3.02381,-0.22445 -4.53125,-0.0937 z"
           style="font-variant:normal;font-weight:bold;font-stretch:normal;fill:#c6e9af;font-family:Strait;-inkscape-font-specification:Strait Bold" />
        <path
           inkscape:connector-curvature="0"
           id="path5778"
           d="m 145.125,785.75 c -3.62729,0.24144 -9.08128,1.41017 -5.75,5.9375 2.66162,-0.9198 9.98087,-3.01917 8.75,2.46875 -1.99409,1.67141 -8.30076,0.12608 -9.9375,4.21875 -2.02655,4.55807 0.0405,12.11473 6.09375,11.21875 1.90396,0.74376 4.43895,-1.68397 5.53125,-1.03125 6.34145,3.08867 2.94284,-7.57771 3.78125,-11.53125 0.5824,-4.34342 0.19549,-11.26757 -5.6875,-11.21875 -0.9223,-0.10715 -1.85495,-0.12387 -2.78125,-0.0625 z m 1.8125,13.65625 c 2.3775,0.0407 1.74518,6.72465 -1.875,5.40625 -3.35186,0.4422 -2.81321,-5.96556 0.53125,-5.28125 0.44039,-0.13417 0.89426,-0.078 1.34375,-0.125 z"
           style="font-variant:normal;font-weight:bold;font-stretch:normal;fill:#c6e9af;font-family:Strait;-inkscape-font-specification:Strait Bold" />
        <path
           inkscape:connector-curvature="0"
           id="path5780"
           d="m 158.1875,779.125 c 0,10 0,20 0,30 8.72472,2.56847 4.52045,-7.79205 5.46875,-13 -0.65303,-5.6803 1.31509,-13.98176 -1,-18 -1.09445,0.53695 -5.02098,-1.09459 -4.46875,1 z"
           style="font-variant:normal;font-weight:bold;font-stretch:normal;fill:#c6e9af;font-family:Strait;-inkscape-font-specification:Strait Bold" />
        <path
           inkscape:connector-curvature="0"
           id="path5782"
           d="m 168.65625,779.125 c 0,10 0,20 0,30 8.72472,2.56847 4.52045,-7.79205 5.46875,-13 -0.65303,-5.6803 1.31509,-13.98176 -1,-18 -1.09445,0.53695 -5.02098,-1.09459 -4.46875,1 z"
           style="font-variant:normal;font-weight:bold;font-stretch:normal;fill:#c6e9af;font-family:Strait;-inkscape-font-specification:Strait Bold" />
        <path
           inkscape:connector-curvature="0"
           id="path5784"
           d="m 189.125,779.9375 c 0,9.72917 0,19.45833 0,29.1875 8.77028,2.59319 4.60441,-7.74975 5.53125,-13 -0.88191,-11.3852 2.37526,2.00481 4.09072,6.19836 -1.32668,6.41829 9.36701,10.40422 9.22178,3.80164 0,-9.0625 0,-18.125 0,-27.1875 -8.77028,-2.59319 -4.60441,7.74975 -5.53125,13 0.87933,11.36548 -2.38026,-2.0741 -4.09491,-6.22817 -0.10436,-5.8979 -5.37577,-9.29289 -9.21759,-5.77183 z"
           style="font-variant:normal;font-weight:bold;font-stretch:normal;fill:#c6e9af;font-family:Strait;-inkscape-font-specification:Strait Bold" />
        <path
           inkscape:connector-curvature="0"
           id="path5786"
           d="m 220.09375,785.71875 c -5.45394,-0.58434 -8.38835,4.95625 -7.6875,9.75 -0.34973,4.94813 -0.54544,13.72059 6.34375,14 4.76286,1.07126 10.53964,-1.48621 10.25,-7 -0.1823,-5.27052 2.01099,-14.62276 -5,-16.375 -1.26001,-0.29781 -2.60026,-0.45178 -3.90625,-0.375 z m 0.6875,4.75 c 5.04376,-0.57228 1.72595,6.4177 2.75,8.96875 0.18642,2.37727 0.60088,6.40407 -3.09375,5.375 -4.76497,0.38915 -1.57049,-6.32762 -2.5,-8.90625 0.0931,-2.32875 -0.95406,-6.24605 2.84375,-5.4375 z"
           style="font-variant:normal;font-weight:bold;font-stretch:normal;fill:#c6e9af;font-family:Strait;-inkscape-font-specification:Strait Bold" />
        <path
           inkscape:connector-curvature="0"
           id="path5788"
           d="m 231.5,787.34375 c 1.39878,7.25012 2.76929,14.51486 4.09375,21.78125 7.65456,2.49635 7.89725,-3.82994 8.59375,-9.6875 1.06499,-8.62665 2.22425,6.58848 3.21875,9.6875 8.16849,2.73515 7.7874,-4.75765 8.81164,-10.64122 -0.48006,-4.25602 6.1597,-14.3532 -1.84289,-12.35878 -3.38024,2.32284 -2.2588,9.89297 -3.8125,14.3125 -2.14864,-4.41301 0.34232,-14.39633 -5.5,-14.3125 -6.27753,-0.57989 -3.48674,9.77373 -5.74983,14.08534 -1.25496,-3.74719 -0.89817,-11.13324 -3.40642,-14.08534 -0.94534,0.59584 -6.26189,-1.26533 -4.40625,1.21875 z"
           style="font-variant:normal;font-weight:bold;font-stretch:normal;fill:#c6e9af;font-family:Strait;-inkscape-font-specification:Strait Bold" />
        <path
           inkscape:connector-curvature="0"
           id="path5790"
           d="m 271.875,780.09375 c 0.16424,7.29164 0.31536,14.58384 0.5,21.875 8.29588,2.10148 3.68527,-9.01908 5.09254,-13.96502 0.32013,-5.73482 1.50484,-12.45048 -5.59254,-7.90998 z M 273.71875,803 c -4.05451,0.59674 -2.68305,8.09062 1.65625,6.59375 4.70436,-0.21068 3.14641,-8.43361 -1.65625,-6.59375 z"
           style="font-variant:normal;font-weight:bold;font-stretch:normal;fill:#c6e9af;font-family:Strait;-inkscape-font-specification:Strait Bold" />
        <path
           inkscape:connector-curvature="0"
           id="path5792"
           d="m 126.84375,778.53125 c -5.95804,-0.41828 -8.90288,5.65865 -8.1875,10.90625 0.76897,6.00818 -2.27849,15.05015 3.75,19.0625 4.16544,1.78786 9.11639,1.34223 13.21875,-0.46875 -0.0565,-5.77797 -4.0662,-3.23444 -7.90625,-3.5 -5.35287,0.56792 -2.908,-6.60316 -3.46875,-9.625 1.00303,-3.2471 -1.85488,-8.85146 1.375,-11.03125 2.70281,-0.75482 5.64087,-0.40069 8.3125,0.34375 1.12747,-3.01117 1.32849,-5.78448 -2.5625,-5.59375 -1.50082,-0.19066 -3.02381,-0.22445 -4.53125,-0.0937 z"
           style="font-variant:normal;font-weight:bold;font-stretch:normal;fill:#c6e9af;font-family:Strait;-inkscape-font-specification:Strait Bold" />
        <path
           inkscape:connector-curvature="0"
           id="path5794"
           d="m 145.125,785.75 c -3.62729,0.24144 -9.08128,1.41017 -5.75,5.9375 2.66162,-0.9198 9.98087,-3.01917 8.75,2.46875 -1.99409,1.67141 -8.30076,0.12608 -9.9375,4.21875 -2.02655,4.55807 0.0405,12.11473 6.09375,11.21875 1.90396,0.74376 4.43895,-1.68397 5.53125,-1.03125 6.34145,3.08867 2.94284,-7.57771 3.78125,-11.53125 0.5824,-4.34342 0.19549,-11.26757 -5.6875,-11.21875 -0.9223,-0.10715 -1.85495,-0.12387 -2.78125,-0.0625 z m 1.8125,13.65625 c 2.3775,0.0407 1.74518,6.72465 -1.875,5.40625 -3.35186,0.4422 -2.81321,-5.96556 0.53125,-5.28125 0.44039,-0.13417 0.89426,-0.078 1.34375,-0.125 z"
           style="font-variant:normal;font-weight:bold;font-stretch:normal;fill:#c6e9af;font-family:Strait;-inkscape-font-specification:Strait Bold" />
        <path
           inkscape:connector-curvature="0"
           id="path5796"
           d="m 158.1875,779.125 c 0,10 0,20 0,30 8.72472,2.56847 4.52045,-7.79205 5.46875,-13 -0.65303,-5.6803 1.31509,-13.98176 -1,-18 -1.09445,0.53695 -5.02098,-1.09459 -4.46875,1 z"
           style="font-variant:normal;font-weight:bold;font-stretch:normal;fill:#c6e9af;font-family:Strait;-inkscape-font-specification:Strait Bold" />
        <path
           inkscape:connector-curvature="0"
           id="path5798"
           d="m 168.65625,779.125 c 0,10 0,20 0,30 8.72472,2.56847 4.52045,-7.79205 5.46875,-13 -0.65303,-5.6803 1.31509,-13.98176 -1,-18 -1.09445,0.53695 -5.02098,-1.09459 -4.46875,1 z"
           style="font-variant:normal;font-weight:bold;font-stretch:normal;fill:#c6e9af;font-family:Strait;-inkscape-font-specification:Strait Bold" />
        <path
           inkscape:connector-curvature="0"
           id="path5800"
           d="m 189.125,779.9375 c 0,9.72917 0,19.45833 0,29.1875 8.77028,2.59319 4.60441,-7.74975 5.53125,-13 -0.88191,-11.3852 2.37526,2.00481 4.09072,6.19836 -1.32668,6.41829 9.36701,10.40422 9.22178,3.80164 0,-9.0625 0,-18.125 0,-27.1875 -8.77028,-2.59319 -4.60441,7.74975 -5.53125,13 0.87933,11.36548 -2.38026,-2.0741 -4.09491,-6.22817 -0.10436,-5.8979 -5.37577,-9.29289 -9.21759,-5.77183 z"
           style="font-variant:normal;font-weight:bold;font-stretch:normal;fill:#c6e9af;font-family:Strait;-inkscape-font-specification:Strait Bold" />
        <path
           inkscape:connector-curvature="0"
           id="path5802"
           d="m 220.09375,785.71875 c -5.45394,-0.58434 -8.38835,4.95625 -7.6875,9.75 -0.34973,4.94813 -0.54544,13.72059 6.34375,14 4.76286,1.07126 10.53964,-1.48621 10.25,-7 -0.1823,-5.27052 2.01099,-14.62276 -5,-16.375 -1.26001,-0.29781 -2.60026,-0.45178 -3.90625,-0.375 z m 0.6875,4.75 c 5.04376,-0.57228 1.72595,6.4177 2.75,8.96875 0.18642,2.37727 0.60088,6.40407 -3.09375,5.375 -4.76497,0.38915 -1.57049,-6.32762 -2.5,-8.90625 0.0931,-2.32875 -0.95406,-6.24605 2.84375,-5.4375 z"
           style="font-variant:normal;font-weight:bold;font-stretch:normal;fill:#c6e9af;font-family:Strait;-inkscape-font-specification:Strait Bold" />
        <path
           inkscape:connector-curvature="0"
           id="path5804"
           d="m 231.5,787.34375 c 1.39878,7.25012 2.76929,14.51486 4.09375,21.78125 7.65456,2.49635 7.89725,-3.82994 8.59375,-9.6875 1.06499,-8.62665 2.22425,6.58848 3.21875,9.6875 8.16849,2.73515 7.7874,-4.75765 8.81164,-10.64122 -0.48006,-4.25602 6.1597,-14.3532 -1.84289,-12.35878 -3.38024,2.32284 -2.2588,9.89297 -3.8125,14.3125 -2.14864,-4.41301 0.34232,-14.39633 -5.5,-14.3125 -6.27753,-0.57989 -3.48674,9.77373 -5.74983,14.08534 -1.25496,-3.74719 -0.89817,-11.13324 -3.40642,-14.08534 -0.94534,0.59584 -6.26189,-1.26533 -4.40625,1.21875 z"
           style="font-variant:normal;font-weight:bold;font-stretch:normal;fill:#c6e9af;font-family:Strait;-inkscape-font-specification:Strait Bold" />
        <path
           inkscape:connector-curvature="0"
           id="path5806"
           d="m 271.875,780.09375 c 0.16424,7.29164 0.31536,14.58384 0.5,21.875 8.29588,2.10148 3.68527,-9.01908 5.09254,-13.96502 0.32013,-5.73482 1.50484,-12.45048 -5.59254,-7.90998 z M 273.71875,803 c -4.05451,0.59674 -2.68305,8.09062 1.65625,6.59375 4.70436,-0.21068 3.14641,-8.43361 -1.65625,-6.59375 z"
           style="font-variant:normal;font-weight:bold;font-stretch:normal;fill:#c6e9af;font-family:Strait;-inkscape-font-specification:Strait Bold" />
        <path
           inkscape:connector-curvature="0"
           id="path5808"
           d="m 126.84375,778.625 c -5.38226,-0.41408 -8.62916,4.77962 -8.0625,9.71875 0.6846,6.34437 -2.27392,14.99671 3.1875,19.75 4.10554,2.21633 9.34797,1.73042 13.5,-0.15625 0.0359,-5.31513 -3.69783,-3.25677 -7.21875,-3.28125 -5.14022,0.98559 -4.26271,-5.19349 -4.09375,-8.375 0.99323,-3.81639 -1.82657,-9.49897 1.3125,-12.4375 3.42759,-1.97951 9.65633,2.69327 9.21875,-3.34375 -0.21119,-2.307 -5.72028,-1.90577 -7.84375,-1.875 z"
           style="font-variant:normal;font-weight:bold;font-stretch:normal;fill:#c6e9af;font-family:Strait;-inkscape-font-specification:Strait Bold" />
        <path
           inkscape:connector-curvature="0"
           id="path5810"
           d="m 145.15625,785.84375 c -3.50339,0.21721 -8.92724,1.33962 -5.71875,5.71875 2.46057,-0.58607 8.92783,-3.04472 8.78125,1.46875 0.74281,3.94444 -4.91158,1.05881 -7.125,2.9375 -5.90681,2.30452 -4.34555,14.1532 2.65625,13.53125 2.07486,0.63935 4.85075,-1.31199 6,-1.21875 6.47947,3.54532 2.81468,-9.0064 3.75,-13.25 0.93182,-4.32112 -1.30466,-9.72362 -6.40625,-9.1875 -0.64517,-0.0361 -1.29242,-0.047 -1.9375,0 z m 2.28125,13.46875 c 2.10131,1.28918 0.86823,7.1484 -2.96875,5.53125 -2.81178,-0.26062 -2.08066,-6.1158 1.0625,-5.40625 0.62945,-0.10539 1.27042,-0.0897 1.90625,-0.125 z"
           style="font-variant:normal;font-weight:bold;font-stretch:normal;fill:#c6e9af;font-family:Strait;-inkscape-font-specification:Strait Bold" />
        <path
           inkscape:connector-curvature="0"
           id="path5812"
           d="m 158.28125,779.21875 c 0,9.9375 0,19.875 0,29.8125 8.58634,2.49259 4.26908,-7.91842 5.28125,-13 -0.66703,-5.60381 1.33581,-13.87747 -1,-17.8125 -1.04618,0.52793 -4.85633,-1.06804 -4.28125,1 z"
           style="font-variant:normal;font-weight:bold;font-stretch:normal;fill:#c6e9af;font-family:Strait;-inkscape-font-specification:Strait Bold" />
        <path
           inkscape:connector-curvature="0"
           id="path5814"
           d="m 168.75,779.21875 c 0,9.9375 0,19.875 0,29.8125 8.58634,2.49259 4.26908,-7.91842 5.28125,-13 -0.66703,-5.60381 1.33581,-13.87747 -1,-17.8125 -1.04618,0.52793 -4.85633,-1.06804 -4.28125,1 z"
           style="font-variant:normal;font-weight:bold;font-stretch:normal;fill:#c6e9af;font-family:Strait;-inkscape-font-specification:Strait Bold" />
        <path
           inkscape:connector-curvature="0"
           id="path5816"
           d="m 189.21875,780.03125 c 0,9.66667 0,19.33333 0,29 8.63276,2.51817 4.35278,-7.87639 5.34375,-13 -0.95643,-11.78073 2.11145,0.54261 3.89827,5.19291 -0.76213,6.00313 7.37507,11.55247 9.41423,5.80709 0,-9.33333 0,-18.66667 0,-28 -8.63276,-2.51817 -4.35278,7.87639 -5.34375,13 0.95839,11.77287 -2.12333,-0.61422 -3.90418,-5.22213 -0.87773,-6.01259 -4.27021,-10.78174 -9.40832,-6.77787 z"
           style="font-variant:normal;font-weight:bold;font-stretch:normal;fill:#c6e9af;font-family:Strait;-inkscape-font-specification:Strait Bold" />
        <path
           inkscape:connector-curvature="0"
           id="path5818"
           d="m 220.09375,785.8125 c -5.2735,-0.5538 -8.34702,4.84671 -7.59375,9.65625 -0.28477,4.99905 -0.60916,13.78372 6.46875,13.9375 4.93011,1.12086 10.5755,-1.93931 10,-7.5625 -0.0844,-5.16955 1.71318,-14.54915 -5.46875,-15.78125 -1.06901,-0.15792 -2.25229,-0.36852 -3.40625,-0.25 z m 0.65625,4.5625 c 5.25643,-0.62085 1.98879,6.83315 2.875,9.6875 0.67962,2.72425 -0.0903,5.85336 -3.53125,4.84375 -4.61522,-0.0717 -1.18222,-6.98096 -2.25,-9.6875 -0.0869,-2.41029 -0.58821,-5.51054 2.90625,-4.84375 z"
           style="font-variant:normal;font-weight:bold;font-stretch:normal;fill:#c6e9af;font-family:Strait;-inkscape-font-specification:Strait Bold" />
        <path
           inkscape:connector-curvature="0"
           id="path5820"
           d="m 231.625,787.40625 c 1.34332,7.21019 2.76612,14.40676 4.0625,21.625 8.51548,2.82551 7.45108,-5.80388 8.77599,-11.63013 1.52942,-5.26806 1.20971,10.448 3.88026,11.63013 8.45335,2.70971 6.3288,-7.30782 8.1682,-12.60334 0.42224,-4.69976 4.8818,-12.67404 -3.32445,-10.20916 -1.02538,2.8725 -2.07914,18.48385 -3.17906,11.83286 -1.84511,-4.61075 0.50034,-14.22637 -7.13344,-11.83286 -2.63354,1.42057 -2.45607,16.55557 -3.94609,12.81253 -2.09578,-4.30316 0.82296,-14.58173 -6.33516,-12.81253 -1.36804,-0.27923 -1.40522,0.0284 -0.96875,1.1875 z"
           style="font-variant:normal;font-weight:bold;font-stretch:normal;fill:#c6e9af;font-family:Strait;-inkscape-font-specification:Strait Bold" />
        <path
           inkscape:connector-curvature="0"
           id="path5822"
           d="m 271.96875,780.21875 c 0.16993,7.21866 0.31452,14.43802 0.5,21.65625 8.10652,1.97182 3.46575,-9.11745 4.90786,-13.96495 1.74028,-5.15414 -0.52919,-12.2721 -5.40882,-7.72301 l 9.6e-4,0.0317 z m 1.71875,22.875 c -4.13314,0.83162 -2.2245,8.23057 2.125,6.375 4.12327,-0.86164 2.30833,-8.11615 -2.125,-6.375 z"
           style="font-variant:normal;font-weight:bold;font-stretch:normal;fill:#c6e9af;font-family:Strait;-inkscape-font-specification:Strait Bold" />
        <path
           inkscape:connector-curvature="0"
           id="path5824"
           d="m 126.84375,778.625 c -5.38226,-0.41408 -8.62916,4.77962 -8.0625,9.71875 0.6846,6.34437 -2.27392,14.99671 3.1875,19.75 4.10554,2.21633 9.34797,1.73042 13.5,-0.15625 0.0359,-5.31513 -3.69783,-3.25677 -7.21875,-3.28125 -5.14022,0.98559 -4.26271,-5.19349 -4.09375,-8.375 0.99323,-3.81639 -1.82657,-9.49897 1.3125,-12.4375 3.42759,-1.97951 9.65633,2.69327 9.21875,-3.34375 -0.21119,-2.307 -5.72028,-1.90577 -7.84375,-1.875 z"
           style="font-variant:normal;font-weight:bold;font-stretch:normal;fill:#c6e9af;font-family:Strait;-inkscape-font-specification:Strait Bold" />
        <path
           inkscape:connector-curvature="0"
           id="path5826"
           d="m 145.15625,785.84375 c -3.50339,0.21721 -8.92724,1.33962 -5.71875,5.71875 2.46057,-0.58607 8.92783,-3.04472 8.78125,1.46875 0.74281,3.94444 -4.91158,1.05881 -7.125,2.9375 -5.90681,2.30452 -4.34555,14.1532 2.65625,13.53125 2.07486,0.63935 4.85075,-1.31199 6,-1.21875 6.47947,3.54532 2.81468,-9.0064 3.75,-13.25 0.93182,-4.32112 -1.30466,-9.72362 -6.40625,-9.1875 -0.64517,-0.0361 -1.29242,-0.047 -1.9375,0 z m 2.28125,13.46875 c 2.10131,1.28918 0.86823,7.1484 -2.96875,5.53125 -2.81178,-0.26062 -2.08066,-6.1158 1.0625,-5.40625 0.62945,-0.10539 1.27042,-0.0897 1.90625,-0.125 z"
           style="font-variant:normal;font-weight:bold;font-stretch:normal;fill:#c6e9af;font-family:Strait;-inkscape-font-specification:Strait Bold" />
        <path
           inkscape:connector-curvature="0"
           id="path5828"
           d="m 158.28125,779.21875 c 0,9.9375 0,19.875 0,29.8125 8.58634,2.49259 4.26908,-7.91842 5.28125,-13 -0.66703,-5.60381 1.33581,-13.87747 -1,-17.8125 -1.04618,0.52793 -4.85633,-1.06804 -4.28125,1 z"
           style="font-variant:normal;font-weight:bold;font-stretch:normal;fill:#c6e9af;font-family:Strait;-inkscape-font-specification:Strait Bold" />
        <path
           inkscape:connector-curvature="0"
           id="path5830"
           d="m 168.75,779.21875 c 0,9.9375 0,19.875 0,29.8125 8.58634,2.49259 4.26908,-7.91842 5.28125,-13 -0.66703,-5.60381 1.33581,-13.87747 -1,-17.8125 -1.04618,0.52793 -4.85633,-1.06804 -4.28125,1 z"
           style="font-variant:normal;font-weight:bold;font-stretch:normal;fill:#c6e9af;font-family:Strait;-inkscape-font-specification:Strait Bold" />
        <path
           inkscape:connector-curvature="0"
           id="path5832"
           d="m 189.21875,780.03125 c 0,9.66667 0,19.33333 0,29 8.63276,2.51817 4.35278,-7.87639 5.34375,-13 -0.95643,-11.78073 2.11145,0.54261 3.89827,5.19291 -0.76213,6.00313 7.37507,11.55247 9.41423,5.80709 0,-9.33333 0,-18.66667 0,-28 -8.63276,-2.51817 -4.35278,7.87639 -5.34375,13 0.95839,11.77287 -2.12333,-0.61422 -3.90418,-5.22213 -0.87773,-6.01259 -4.27021,-10.78174 -9.40832,-6.77787 z"
           style="font-variant:normal;font-weight:bold;font-stretch:normal;fill:#c6e9af;font-family:Strait;-inkscape-font-specification:Strait Bold" />
        <path
           inkscape:connector-curvature="0"
           id="path5834"
           d="m 220.09375,785.8125 c -5.2735,-0.5538 -8.34702,4.84671 -7.59375,9.65625 -0.28477,4.99905 -0.60916,13.78372 6.46875,13.9375 4.93011,1.12086 10.5755,-1.93931 10,-7.5625 -0.0844,-5.16955 1.71318,-14.54915 -5.46875,-15.78125 -1.06901,-0.15792 -2.25229,-0.36852 -3.40625,-0.25 z m 0.65625,4.5625 c 5.25643,-0.62085 1.98879,6.83315 2.875,9.6875 0.67962,2.72425 -0.0903,5.85336 -3.53125,4.84375 -4.61522,-0.0717 -1.18222,-6.98096 -2.25,-9.6875 -0.0869,-2.41029 -0.58821,-5.51054 2.90625,-4.84375 z"
           style="font-variant:normal;font-weight:bold;font-stretch:normal;fill:#c6e9af;font-family:Strait;-inkscape-font-specification:Strait Bold" />
        <path
           inkscape:connector-curvature="0"
           id="path5836"
           d="m 231.625,787.40625 c 1.34332,7.21019 2.76612,14.40676 4.0625,21.625 8.51548,2.82551 7.45108,-5.80388 8.77599,-11.63013 1.52942,-5.26806 1.20971,10.448 3.88026,11.63013 8.45335,2.70971 6.3288,-7.30782 8.1682,-12.60334 0.42224,-4.69976 4.8818,-12.67404 -3.32445,-10.20916 -1.02538,2.8725 -2.07914,18.48385 -3.17906,11.83286 -1.84511,-4.61075 0.50034,-14.22637 -7.13344,-11.83286 -2.63354,1.42057 -2.45607,16.55557 -3.94609,12.81253 -2.09578,-4.30316 0.82296,-14.58173 -6.33516,-12.81253 -1.36804,-0.27923 -1.40522,0.0284 -0.96875,1.1875 z"
           style="font-variant:normal;font-weight:bold;font-stretch:normal;fill:#c6e9af;font-family:Strait;-inkscape-font-specification:Strait Bold" />
        <path
           inkscape:connector-curvature="0"
           id="path5838"
           d="m 271.96875,780.21875 c 0.16993,7.21866 0.31452,14.43802 0.5,21.65625 8.10652,1.97182 3.46575,-9.11745 4.90786,-13.96495 1.74028,-5.15414 -0.52919,-12.2721 -5.40882,-7.72301 l 9.6e-4,0.0317 z m 1.71875,22.875 c -4.13314,0.83162 -2.2245,8.23057 2.125,6.375 4.12327,-0.86164 2.30833,-8.11615 -2.125,-6.375 z"
           style="font-variant:normal;font-weight:bold;font-stretch:normal;fill:#c6e9af;font-family:Strait;-inkscape-font-specification:Strait Bold" />
        <path
           inkscape:connector-curvature="0"
           id="path5452"
           d="m 126.90625,779.53125 c -1.62334,0.16216 -3.27838,0.50406 -4.71875,1.28125 -0.97433,0.96551 -1.63825,2.27385 -2.0567,3.59671 -0.53133,2.20793 -0.43178,4.50963 -0.52987,6.76557 -0.006,3.44003 -0.0111,6.88835 0.17624,10.3218 0.27397,1.62707 0.36838,3.40199 1.50144,4.70701 0.60031,1.00428 1.68515,1.50998 2.7888,1.83521 1.78473,0.66199 3.74113,0.54864 5.61246,0.52173 1.60905,-0.13406 3.20829,-0.48577 4.69513,-1.12303 -0.27348,-0.84288 -0.53901,-1.68837 -0.8125,-2.53125 -2.55074,0.68581 -5.27938,0.9108 -7.87612,0.37463 -0.79915,-0.26554 -1.45959,-0.68827 -1.93638,-1.34338 -0.64326,-1.47976 -0.42749,-3.15154 -0.5,-4.725 0.039,-4.41835 -0.0837,-8.84005 0.0725,-13.256 -0.0211,-0.99295 0.28168,-2.05357 1.19302,-2.58141 1.41326,-1.02341 3.28345,-0.83229 4.94059,-0.89697 1.25897,0.0204 2.51526,0.20112 3.7314,0.52188 0.24028,-0.92105 0.4159,-1.86022 0.65625,-2.78125 -2.21648,-0.77105 -4.61358,-0.85015 -6.9375,-0.6875 z"
           style="font-variant:normal;font-weight:bold;font-stretch:normal;fill:#d7f4e3;font-family:Strait;-inkscape-font-specification:Strait Bold" />
        <path
           inkscape:connector-curvature="0"
           id="path5454"
           d="m 145.1875,786.75 c -2.03026,0.12245 -4.00757,0.66227 -5.84375,1.53125 0.23328,0.72784 0.45422,1.45966 0.6875,2.1875 2.37461,-0.71145 4.95565,-1.29024 7.40625,-0.625 1.08884,0.32988 1.62824,1.43985 1.66465,2.51612 0.053,1.18953 0.008,2.38558 0.0229,3.57763 -2.32189,0.11693 -4.71151,-0.0813 -6.96875,0.5625 -1.23092,0.45052 -2.5502,1.01132 -3.04998,2.30776 -0.84604,1.95096 -0.64989,4.18911 -0.23127,6.22349 0.28,1.12011 0.81813,2.18592 1.80355,2.803 1.7266,1.04167 3.87369,0.81039 5.7902,0.572 1.40819,-0.3231 2.73078,-1.05241 3.65625,-2.15625 0.21922,0.60055 0.27623,1.38404 0.59375,1.875 0.625,0 1.25,0 1.875,0 -0.018,-5.39085 0.0361,-10.78497 -0.0272,-16.17377 -0.075,-1.70752 -0.59436,-3.65522 -2.21389,-4.47298 -1.58232,-0.72506 -3.44485,-0.797 -5.1652,-0.72825 z m 3.9375,11.65625 c -0.056,1.71662 0.11626,3.45132 -0.0937,5.15625 -0.23726,1.02136 -0.8601,1.86405 -1.90951,2.0555 -1.36927,0.29748 -2.88659,0.31962 -4.18424,-0.243 -1.1146,-0.99433 -0.9185,-2.67917 -0.92983,-4.03721 -0.0161,-0.92277 0.4496,-1.89783 1.32031,-2.16501 1.74978,-0.96577 3.875,-0.70738 5.79702,-0.76653 z"
           style="font-variant:normal;font-weight:bold;font-stretch:normal;fill:#d7f4e3;font-family:Strait;-inkscape-font-specification:Strait Bold" />
        <path
           inkscape:connector-curvature="0"
           id="path5456"
           d="m 159.1875,779.21875 c 0,9.63542 0,19.27083 0,28.90625 1.15625,0 2.3125,0 3.46875,0 0,-9.66667 0,-19.33333 0,-29 -1.15625,0 -2.3125,0 -3.46875,0 l 0,0.0937 z"
           style="font-variant:normal;font-weight:bold;font-stretch:normal;fill:#d7f4e3;font-family:Strait;-inkscape-font-specification:Strait Bold" />
        <path
           inkscape:connector-curvature="0"
           id="path5458"
           d="m 169.65625,779.21875 c 0,9.63542 0,19.27083 0,28.90625 1.15625,0 2.3125,0 3.46875,0 0,-9.66667 0,-19.33333 0,-29 -1.15625,0 -2.3125,0 -3.46875,0 l 0,0.0937 z"
           style="font-variant:normal;font-weight:bold;font-stretch:normal;fill:#d7f4e3;font-family:Strait;-inkscape-font-specification:Strait Bold" />
        <path
           inkscape:connector-curvature="0"
           id="path5460"
           d="m 190.125,780.03125 c 0,9.36458 0,18.72917 0,28.09375 1.17708,0 2.35417,0 3.53125,0 0,-7.79167 0,-15.58333 0,-23.375 0.35183,0.3913 0.4315,1.16373 0.678,1.70254 2.48519,7.22296 4.94752,14.4555 7.447,21.67246 1.72917,0 3.45833,0 5.1875,0 0,-9.39583 0,-18.79167 0,-28.1875 -1.17708,0 -2.35417,0 -3.53125,0 0,7.78125 0,15.5625 0,23.34375 -0.35199,-0.39125 -0.43198,-1.16357 -0.6787,-1.7023 -2.48495,-7.21262 -4.94711,-14.43481 -7.4463,-21.64145 -1.72917,0 -3.45833,0 -5.1875,0 l 0,0.0937 z"
           style="font-variant:normal;font-weight:bold;font-stretch:normal;fill:#d7f4e3;font-family:Strait;-inkscape-font-specification:Strait Bold" />
        <path
           inkscape:connector-curvature="0"
           id="path5462"
           d="m 220.15625,786.71875 c -1.45664,0.13946 -3.02474,0.25266 -4.28125,1.0625 -0.77768,0.79414 -1.68927,1.57651 -1.85943,2.75692 -0.79883,2.56879 -0.56989,5.28054 -0.60932,7.93058 0.0322,2.53476 -0.018,5.20693 1.08319,7.5435 0.74479,0.97591 1.64644,2.02262 2.96899,2.15902 2.49931,0.67836 5.19722,0.53968 7.62936,-0.31291 0.8349,-0.42013 1.43091,-1.22213 2.02327,-1.91453 1.00415,-2.26698 1.05239,-4.81706 1.01394,-7.26258 -0.0436,-3.04824 0.23254,-6.22569 -0.90625,-9.11875 -0.42296,-0.73721 -1.13245,-1.31178 -1.734,-1.88415 -1.43464,-0.77456 -3.12905,-0.89871 -4.73475,-0.99085 -0.19792,0.0104 -0.39583,0.0208 -0.59375,0.0312 z m 1.25,2.78125 c 1.08864,0.0329 2.48452,0.23098 2.84761,1.43738 0.52192,1.37605 0.17756,2.88884 0.27739,4.32512 -0.0362,2.79021 0.0732,5.58817 -0.0561,8.37346 -0.15504,0.90855 -0.68992,1.86958 -1.69874,1.98148 -1.52307,0.28876 -3.16876,0.33074 -4.65145,-0.17994 -1.19324,-0.63878 -1.23666,-2.21759 -1.1875,-3.41875 0.029,-3.41355 -0.0581,-6.83331 0.0437,-10.24298 0.10974,-1.06324 0.83722,-2.10961 1.9876,-2.15077 0.79674,-0.16152 1.6279,-0.16516 2.4375,-0.125 z"
           style="font-variant:normal;font-weight:bold;font-stretch:normal;fill:#d7f4e3;font-family:Strait;-inkscape-font-specification:Strait Bold" />
        <path
           inkscape:connector-curvature="0"
           id="path5464"
           d="m 232.5,787.25 c 1.30862,6.9587 2.64824,13.91449 3.9375,20.875 1.71875,0 3.4375,0 5.15625,0 1.07095,-5.91876 2.1913,-11.83298 3.28125,-17.75 0.27641,0.696 0.33133,1.65883 0.5227,2.45728 0.94693,5.09793 1.92455,10.19301 2.8523,15.29272 1.71875,0 3.4375,0 5.15625,0 1.30211,-7.00164 2.63511,-14.00284 3.96875,-21 -1.14583,0 -2.29167,0 -3.4375,0 -1.09246,6.22072 -2.23285,12.43717 -3.34375,18.65625 -0.62249,-2.91955 -1.13459,-5.97221 -1.71463,-8.94294 -0.60164,-3.23814 -1.23426,-6.47338 -1.81662,-9.71331 -1.42708,0 -2.85417,0 -4.28125,0 -1.14354,6.22091 -2.33719,12.43714 -3.5,18.65625 -0.59284,-2.89112 -1.07421,-5.91553 -1.62418,-8.85791 -0.57992,-3.26644 -1.18935,-6.53025 -1.75082,-9.79834 -1.14583,0 -2.29167,0 -3.4375,0 l 0.0242,0.097 0.007,0.028 z"
           style="font-variant:normal;font-weight:bold;font-stretch:normal;fill:#d7f4e3;font-family:Strait;-inkscape-font-specification:Strait Bold" />
        <path
           inkscape:connector-curvature="0"
           id="path5466"
           d="m 272.875,780.1875 c 0.15554,6.92709 0.31675,13.85412 0.46875,20.78125 0.9375,0 1.875,0 2.8125,0 0.16138,-6.9584 0.33862,-13.9166 0.5,-20.875 -1.26042,0 -2.52083,0 -3.78125,0 l 0,0.0937 z M 273.75,804 c -0.88591,0.1047 -1.40689,0.89542 -1.36365,1.76151 -0.0164,0.94947 -0.15207,2.37735 0.98051,2.67513 0.79685,0.28351 1.70723,0.1531 2.53939,0.0946 0.71938,-0.13013 1.1297,-0.6991 1.16839,-1.41399 0.0813,-0.95794 0.18981,-2.21114 -0.60589,-2.86726 -0.83208,-0.42765 -1.81442,-0.26637 -2.71875,-0.25 z"
           style="font-variant:normal;font-weight:bold;font-stretch:normal;fill:#d7f4e3;font-family:Strait;-inkscape-font-specification:Strait Bold" />
        <path
           inkscape:connector-curvature="0"
           id="path5468"
           d="m 126.90625,779.53125 c -1.62334,0.16216 -3.27838,0.50406 -4.71875,1.28125 -0.97433,0.96551 -1.63825,2.27385 -2.0567,3.59671 -0.53133,2.20793 -0.43178,4.50963 -0.52987,6.76557 -0.006,3.44003 -0.0111,6.88835 0.17624,10.3218 0.27397,1.62707 0.36838,3.40199 1.50144,4.70701 0.60031,1.00428 1.68515,1.50998 2.7888,1.83521 1.78473,0.66199 3.74113,0.54864 5.61246,0.52173 1.60905,-0.13406 3.20829,-0.48577 4.69513,-1.12303 -0.27348,-0.84288 -0.53901,-1.68837 -0.8125,-2.53125 -2.55074,0.68581 -5.27938,0.9108 -7.87612,0.37463 -0.79915,-0.26554 -1.45959,-0.68827 -1.93638,-1.34338 -0.64326,-1.47976 -0.42749,-3.15154 -0.5,-4.725 0.039,-4.41835 -0.0837,-8.84005 0.0725,-13.256 -0.0211,-0.99295 0.28168,-2.05357 1.19302,-2.58141 1.41326,-1.02341 3.28345,-0.83229 4.94059,-0.89697 1.25897,0.0204 2.51526,0.20112 3.7314,0.52188 0.24028,-0.92105 0.4159,-1.86022 0.65625,-2.78125 -2.21648,-0.77105 -4.61358,-0.85015 -6.9375,-0.6875 z"
           style="font-variant:normal;font-weight:bold;font-stretch:normal;fill:#d7f4e3;font-family:Strait;-inkscape-font-specification:Strait Bold" />
        <path
           inkscape:connector-curvature="0"
           id="path5470"
           d="m 145.1875,786.75 c -2.03026,0.12245 -4.00757,0.66227 -5.84375,1.53125 0.23328,0.72784 0.45422,1.45966 0.6875,2.1875 2.37461,-0.71145 4.95565,-1.29024 7.40625,-0.625 1.08884,0.32988 1.62824,1.43985 1.66465,2.51612 0.053,1.18953 0.008,2.38558 0.0229,3.57763 -2.32189,0.11693 -4.71151,-0.0813 -6.96875,0.5625 -1.23092,0.45052 -2.5502,1.01132 -3.04998,2.30776 -0.84604,1.95096 -0.64989,4.18911 -0.23127,6.22349 0.28,1.12011 0.81813,2.18592 1.80355,2.803 1.7266,1.04167 3.87369,0.81039 5.7902,0.572 1.40819,-0.3231 2.73078,-1.05241 3.65625,-2.15625 0.21922,0.60055 0.27623,1.38404 0.59375,1.875 0.625,0 1.25,0 1.875,0 -0.018,-5.39085 0.0361,-10.78497 -0.0272,-16.17377 -0.075,-1.70752 -0.59436,-3.65522 -2.21389,-4.47298 -1.58232,-0.72506 -3.44485,-0.797 -5.1652,-0.72825 z m 3.9375,11.65625 c -0.056,1.71662 0.11626,3.45132 -0.0937,5.15625 -0.23726,1.02136 -0.8601,1.86405 -1.90951,2.0555 -1.36927,0.29748 -2.88659,0.31962 -4.18424,-0.243 -1.1146,-0.99433 -0.9185,-2.67917 -0.92983,-4.03721 -0.0161,-0.92277 0.4496,-1.89783 1.32031,-2.16501 1.74978,-0.96577 3.875,-0.70738 5.79702,-0.76653 z"
           style="font-variant:normal;font-weight:bold;font-stretch:normal;fill:#d7f4e3;font-family:Strait;-inkscape-font-specification:Strait Bold" />
        <path
           inkscape:connector-curvature="0"
           id="path5472"
           d="m 159.1875,779.21875 c 0,9.63542 0,19.27083 0,28.90625 1.15625,0 2.3125,0 3.46875,0 0,-9.66667 0,-19.33333 0,-29 -1.15625,0 -2.3125,0 -3.46875,0 l 0,0.0937 z"
           style="font-variant:normal;font-weight:bold;font-stretch:normal;fill:#d7f4e3;font-family:Strait;-inkscape-font-specification:Strait Bold" />
        <path
           inkscape:connector-curvature="0"
           id="path5474"
           d="m 169.65625,779.21875 c 0,9.63542 0,19.27083 0,28.90625 1.15625,0 2.3125,0 3.46875,0 0,-9.66667 0,-19.33333 0,-29 -1.15625,0 -2.3125,0 -3.46875,0 l 0,0.0937 z"
           style="font-variant:normal;font-weight:bold;font-stretch:normal;fill:#d7f4e3;font-family:Strait;-inkscape-font-specification:Strait Bold" />
        <path
           inkscape:connector-curvature="0"
           id="path5476"
           d="m 190.125,780.03125 c 0,9.36458 0,18.72917 0,28.09375 1.17708,0 2.35417,0 3.53125,0 0,-7.79167 0,-15.58333 0,-23.375 0.35183,0.3913 0.4315,1.16373 0.678,1.70254 2.48519,7.22296 4.94752,14.4555 7.447,21.67246 1.72917,0 3.45833,0 5.1875,0 0,-9.39583 0,-18.79167 0,-28.1875 -1.17708,0 -2.35417,0 -3.53125,0 0,7.78125 0,15.5625 0,23.34375 -0.35199,-0.39125 -0.43198,-1.16357 -0.6787,-1.7023 -2.48495,-7.21262 -4.94711,-14.43481 -7.4463,-21.64145 -1.72917,0 -3.45833,0 -5.1875,0 l 0,0.0937 z"
           style="font-variant:normal;font-weight:bold;font-stretch:normal;fill:#d7f4e3;font-family:Strait;-inkscape-font-specification:Strait Bold" />
        <path
           inkscape:connector-curvature="0"
           id="path5478"
           d="m 220.15625,786.71875 c -1.45664,0.13946 -3.02474,0.25266 -4.28125,1.0625 -0.77768,0.79414 -1.68927,1.57651 -1.85943,2.75692 -0.79883,2.56879 -0.56989,5.28054 -0.60932,7.93058 0.0322,2.53476 -0.018,5.20693 1.08319,7.5435 0.74479,0.97591 1.64644,2.02262 2.96899,2.15902 2.49931,0.67836 5.19722,0.53968 7.62936,-0.31291 0.8349,-0.42013 1.43091,-1.22213 2.02327,-1.91453 1.00415,-2.26698 1.05239,-4.81706 1.01394,-7.26258 -0.0436,-3.04824 0.23254,-6.22569 -0.90625,-9.11875 -0.42296,-0.73721 -1.13245,-1.31178 -1.734,-1.88415 -1.43464,-0.77456 -3.12905,-0.89871 -4.73475,-0.99085 -0.19792,0.0104 -0.39583,0.0208 -0.59375,0.0312 z m 1.25,2.78125 c 1.08864,0.0329 2.48452,0.23098 2.84761,1.43738 0.52192,1.37605 0.17756,2.88884 0.27739,4.32512 -0.0362,2.79021 0.0732,5.58817 -0.0561,8.37346 -0.15504,0.90855 -0.68992,1.86958 -1.69874,1.98148 -1.52307,0.28876 -3.16876,0.33074 -4.65145,-0.17994 -1.19324,-0.63878 -1.23666,-2.21759 -1.1875,-3.41875 0.029,-3.41355 -0.0581,-6.83331 0.0437,-10.24298 0.10974,-1.06324 0.83722,-2.10961 1.9876,-2.15077 0.79674,-0.16152 1.6279,-0.16516 2.4375,-0.125 z"
           style="font-variant:normal;font-weight:bold;font-stretch:normal;fill:#d7f4e3;font-family:Strait;-inkscape-font-specification:Strait Bold" />
        <path
           inkscape:connector-curvature="0"
           id="path5480"
           d="m 232.5,787.25 c 1.30862,6.9587 2.64824,13.91449 3.9375,20.875 1.71875,0 3.4375,0 5.15625,0 1.07095,-5.91876 2.1913,-11.83298 3.28125,-17.75 0.27641,0.696 0.33133,1.65883 0.5227,2.45728 0.94693,5.09793 1.92455,10.19301 2.8523,15.29272 1.71875,0 3.4375,0 5.15625,0 1.30211,-7.00164 2.63511,-14.00284 3.96875,-21 -1.14583,0 -2.29167,0 -3.4375,0 -1.09246,6.22072 -2.23285,12.43717 -3.34375,18.65625 -0.62249,-2.91955 -1.13459,-5.97221 -1.71463,-8.94294 -0.60164,-3.23814 -1.23426,-6.47338 -1.81662,-9.71331 -1.42708,0 -2.85417,0 -4.28125,0 -1.14354,6.22091 -2.33719,12.43714 -3.5,18.65625 -0.59284,-2.89112 -1.07421,-5.91553 -1.62418,-8.85791 -0.57992,-3.26644 -1.18935,-6.53025 -1.75082,-9.79834 -1.14583,0 -2.29167,0 -3.4375,0 l 0.0242,0.097 0.007,0.028 z"
           style="font-variant:normal;font-weight:bold;font-stretch:normal;fill:#d7f4e3;font-family:Strait;-inkscape-font-specification:Strait Bold" />
        <path
           inkscape:connector-curvature="0"
           id="path5482"
           d="m 272.875,780.1875 c 0.15554,6.92709 0.31675,13.85412 0.46875,20.78125 0.9375,0 1.875,0 2.8125,0 0.16138,-6.9584 0.33862,-13.9166 0.5,-20.875 -1.26042,0 -2.52083,0 -3.78125,0 l 0,0.0937 z M 273.75,804 c -0.88591,0.1047 -1.40689,0.89542 -1.36365,1.76151 -0.0164,0.94947 -0.15207,2.37735 0.98051,2.67513 0.79685,0.28351 1.70723,0.1531 2.53939,0.0946 0.71938,-0.13013 1.1297,-0.6991 1.16839,-1.41399 0.0813,-0.95794 0.18981,-2.21114 -0.60589,-2.86726 -0.83208,-0.42765 -1.81442,-0.26637 -2.71875,-0.25 z"
           style="font-variant:normal;font-weight:bold;font-stretch:normal;fill:#d7f4e3;font-family:Strait;-inkscape-font-specification:Strait Bold" />
        <path
           id="path5236"
           style="font-variant:normal;font-weight:bold;font-stretch:normal;font-family:Strait;-inkscape-font-specification:Strait Bold"
           d="m 122.9261,780.54753 c 0.66666,-0.26664 1.45332,-0.49331 2.36,-0.68 0.90665,-0.21331 2.14665,-0.31997 3.72,-0.32 1.59998,3e-5 3.17331,0.24003 4.72,0.72 l -0.6,2.6 c -1.33335,-0.31998 -2.65335,-0.47998 -3.96,-0.48 -1.28002,2e-5 -2.24001,0.0534 -2.88,0.16 -0.64001,0.10669 -1.16001,0.29336 -1.56,0.56 -0.37334,0.26669 -0.68001,0.52002 -0.92,0.76 -0.21334,0.24002 -0.37334,0.61335 -0.48,1.12 -0.10668,0.64002 -0.16001,1.56002 -0.16,2.76 l 0,12.56 c -1e-5,2.13334 0.21332,3.42667 0.64,3.88 0.69332,0.72 1.43999,1.14667 2.24,1.28 0.79999,0.13333 1.82665,0.2 3.08,0.2 1.25332,0 2.70665,-0.21333 4.36,-0.64 l 0.76,2.36 c -1.78669,0.74666 -3.69335,1.12 -5.72,1.12 -1.92001,0 -3.25335,-0.13334 -4,-0.4 -0.74668,-0.26667 -1.33334,-0.49334 -1.76,-0.68 -0.42668,-0.18667 -0.81334,-0.50667 -1.16,-0.96 -0.32001,-0.45333 -0.58667,-0.84 -0.8,-1.16 -0.21334,-0.32 -0.40001,-0.84 -0.56,-1.56 -0.13334,-0.72 -0.24001,-1.32 -0.32,-1.8 -0.08,-0.50666 -0.13334,-1.28 -0.16,-2.32 -0.0533,-2.02666 -0.08,-3.93332 -0.08,-5.72 -1e-5,-1.78665 0.0133,-3.13332 0.04,-4.04 0.0267,-0.90665 0.08,-1.99998 0.16,-3.28 0.10666,-1.27998 0.27999,-2.18665 0.52,-2.72 0.23999,-0.55998 0.55999,-1.18664 0.96,-1.88 0.39999,-0.71998 0.91999,-1.19998 1.56,-1.44"
           inkscape:connector-curvature="0" />
        <path
           id="path5238"
           style="font-variant:normal;font-weight:bold;font-stretch:normal;font-family:Strait;-inkscape-font-specification:Strait Bold"
           d="m 152.50672,808.02753 -1.8,0 -0.52,-1.96 c -0.64001,0.72 -1.36001,1.28 -2.16,1.68 -0.80001,0.37333 -1.46668,0.58666 -2,0.64 -0.53334,0.08 -1.29334,0.12 -2.28,0.12 -0.96001,0 -1.81334,-0.17334 -2.56,-0.52 -0.74667,-0.34667 -1.30667,-0.86667 -1.68,-1.56 -0.58667,-1.12 -0.88,-2.62667 -0.88,-4.52 0,-2.39999 0.69333,-3.95999 2.08,-4.68 0.56,-0.26666 1.05333,-0.47999 1.48,-0.64 0.45333,-0.15999 1.11999,-0.27999 2,-0.36 0.90666,-0.08 1.66666,-0.11999 2.28,-0.12 0.63999,-0.0267 1.55999,-0.0533 2.76,-0.08 l 0,-3 c -1e-5,-1.38665 -0.29335,-2.31999 -0.88,-2.8 -0.58668,-0.50665 -1.65334,-0.75998 -3.2,-0.76 -1.54667,2e-5 -3.22667,0.29335 -5.04,0.88 l -0.64,-2 c 2.08,-1.01332 4.27999,-1.51998 6.6,-1.52 2.77332,2e-5 4.55999,0.56002 5.36,1.68 0.42665,0.61335 0.70665,1.25335 0.84,1.92 0.15998,0.66668 0.23998,1.53335 0.24,2.6 l 0,15 m -3.28,-5.6 0,-4.12 c -2.72001,10e-6 -4.34667,0.10667 -4.88,0.32 -0.50667,0.18667 -0.96001,0.38667 -1.36,0.6 -0.72001,0.37334 -1.08,1.10667 -1.08,2.2 l 0,0.92 c 0,1.30667 0.19999,2.22667 0.6,2.76 0.39999,0.53333 1.34666,0.8 2.84,0.8 1.51999,0 2.54666,-0.29333 3.08,-0.88 0.53332,-0.61333 0.79999,-1.48 0.8,-2.6"
           inkscape:connector-curvature="0" />
        <path
           id="path5240"
           style="font-variant:normal;font-weight:bold;font-stretch:normal;font-family:Strait;-inkscape-font-specification:Strait Bold"
           d="m 162.55047,808.02753 -3.28,0 0,-28.8 3.28,0 0,28.8"
           inkscape:connector-curvature="0" />
        <path
           id="path5242"
           style="font-variant:normal;font-weight:bold;font-stretch:normal;font-family:Strait;-inkscape-font-specification:Strait Bold"
           d="m 173.01922,808.02753 -3.28,0 0,-28.8 3.28,0 0,28.8"
           inkscape:connector-curvature="0" />
        <path
           id="path5244"
           style="font-variant:normal;font-weight:bold;font-stretch:normal;font-family:Strait;-inkscape-font-specification:Strait Bold"
           d="m 190.20797,780.02753 5.04,0 8.04,23.36 0.24,0 0,-23.36 3.36,0 0,28 -5.04,0 -8.04,-23.36 -0.24,0 0,23.36 -3.36,0 0,-28"
           inkscape:connector-curvature="0" />
        <path
           id="path5246"
           style="font-variant:normal;font-weight:bold;font-stretch:normal;font-family:Strait;-inkscape-font-specification:Strait Bold"
           d="m 222.91422,808.30753 c -0.64001,0.13333 -1.36001,0.2 -2.16,0.2 -0.80001,0 -1.52001,-0.0667 -2.16,-0.2 -0.64001,-0.10667 -1.20001,-0.22667 -1.68,-0.36 -0.48,-0.16 -0.90667,-0.41334 -1.28,-0.76 -0.34667,-0.37334 -0.64,-0.69333 -0.88,-0.96 -0.24,-0.29333 -0.44,-0.73333 -0.6,-1.32 -0.16,-0.58667 -0.28,-1.06667 -0.36,-1.44 -0.08,-0.4 -0.14667,-1 -0.2,-1.8 -0.0533,-0.8 -0.08,-1.42666 -0.08,-1.88 l 0,-4.32 c 0,-1.54666 0.0667,-2.62665 0.2,-3.24 0.13333,-0.63999 0.28,-1.25332 0.44,-1.84 0.16,-0.58665 0.36,-1.01332 0.6,-1.28 0.24,-0.29332 0.53333,-0.61332 0.88,-0.96 0.37333,-0.37332 0.8,-0.62665 1.28,-0.76 0.47999,-0.15998 1.03999,-0.29332 1.68,-0.4 0.63999,-0.13332 1.35999,-0.19998 2.16,-0.2 0.79999,2e-5 1.51999,0.0667 2.16,0.2 0.63999,0.10668 1.19999,0.24002 1.68,0.4 0.47999,0.13335 0.90665,0.38668 1.28,0.76 0.37332,0.34668 0.67999,0.66668 0.92,0.96 0.23998,0.26668 0.43998,0.69335 0.6,1.28 0.15998,0.58668 0.27998,1.06668 0.36,1.44 0.08,0.37335 0.14665,0.96001 0.2,1.76 0.0533,0.80001 0.08,1.42668 0.08,1.88 -2e-5,10e-6 -2e-5,1.44001 0,4.32 -2e-5,1.54667 -0.0667,2.64 -0.2,3.28 -0.13335,0.64 -0.28002,1.25333 -0.44,1.84 -0.16002,0.58667 -0.36002,1.02667 -0.6,1.32 -0.24001,0.26667 -0.54668,0.58666 -0.92,0.96 -0.37335,0.34666 -0.80001,0.6 -1.28,0.76 -0.48001,0.13333 -1.04001,0.25333 -1.68,0.36 m 1.72,-6.08 0,-9.16 c -1e-5,-0.66665 -0.0267,-1.15999 -0.08,-1.48 -0.0533,-0.31999 -0.18668,-0.67999 -0.4,-1.08 -0.21335,-0.42665 -0.60001,-0.71998 -1.16,-0.88 -0.56001,-0.15998 -1.30668,-0.23998 -2.24,-0.24 -0.93334,2e-5 -1.69334,0.08 -2.28,0.24 -0.56001,0.16002 -0.94667,0.45335 -1.16,0.88 -0.21334,0.40001 -0.34667,0.76001 -0.4,1.08 -0.0533,0.32001 -0.08,0.81335 -0.08,1.48 l 0,9.16 c -10e-6,0.66667 0.0267,1.16 0.08,1.48 0.0533,0.32 0.18666,0.69333 0.4,1.12 0.21333,0.4 0.59999,0.68 1.16,0.84 0.58666,0.16 1.34666,0.24 2.28,0.24 0.93332,0 1.67999,-0.08 2.24,-0.24 0.55999,-0.16 0.94665,-0.44 1.16,-0.84 0.21332,-0.42667 0.34665,-0.8 0.4,-1.12 0.0533,-0.32 0.08,-0.81333 0.08,-1.48"
           inkscape:connector-curvature="0" />
        <path
           id="path5248"
           style="font-variant:normal;font-weight:bold;font-stretch:normal;font-family:Strait;-inkscape-font-specification:Strait Bold"
           d="m 253.30297,808.02753 -4.96,0 -3.32,-17.76 -0.24,0 -3.28,17.76 -4.96,0 -3.96,-20.8 3.24,0 3.32,18.64 0.24,0 3.48,-18.64 4.12,0 3.48,18.64 0.24,0 3.32,-18.64 3.24,0 -3.96,20.8"
           inkscape:connector-curvature="0" />
        <path
           id="path5250"
           style="font-variant:normal;font-weight:bold;font-stretch:normal;font-family:Strait;-inkscape-font-specification:Strait Bold"
           d="m 273.7536,804.10753 c 0.21332,-0.0267 0.54666,-0.04 1,-0.04 0.45332,0 0.77332,0.0133 0.96,0.04 0.21332,0.0267 0.43999,0.10667 0.68,0.24 0.23999,0.13333 0.39999,0.36 0.48,0.68 0.10665,0.29333 0.15999,0.70667 0.16,1.24 -10e-6,0.53333 -0.0533,0.96 -0.16,1.28 -0.08,0.32 -0.24001,0.54666 -0.48,0.68 -0.24001,0.13333 -0.46668,0.21333 -0.68,0.24 -0.18668,0.0267 -0.50668,0.04 -0.96,0.04 -0.45334,0 -0.78668,-0.0133 -1,-0.04 -0.18668,-0.0267 -0.40001,-0.10667 -0.64,-0.24 -0.24001,-0.13334 -0.41334,-0.36 -0.52,-0.68 -0.08,-0.32 -0.12001,-0.74667 -0.12,-1.28 -10e-6,-0.53333 0.04,-0.94667 0.12,-1.24 0.10666,-0.32 0.27999,-0.54667 0.52,-0.68 0.23999,-0.13333 0.45332,-0.21333 0.64,-0.24 m 2.32,-3.24 -2.64,0 -0.48,-20.68 3.6,0 -0.48,20.68"
           inkscape:connector-curvature="0" />
        <path
           d="m 122.9261,780.54753 c 0.66666,-0.26664 1.45332,-0.49331 2.36,-0.68 0.90665,-0.21331 2.14665,-0.31997 3.72,-0.32 1.59998,3e-5 3.17331,0.24003 4.72,0.72 l -0.6,2.6 c -1.33335,-0.31998 -2.65335,-0.47998 -3.96,-0.48 -1.28002,2e-5 -2.24001,0.0534 -2.88,0.16 -0.64001,0.10669 -1.16001,0.29336 -1.56,0.56 -0.37334,0.26669 -0.68001,0.52002 -0.92,0.76 -0.21334,0.24002 -0.37334,0.61335 -0.48,1.12 -0.10668,0.64002 -0.16001,1.56002 -0.16,2.76 l 0,12.56 c -1e-5,2.13334 0.21332,3.42667 0.64,3.88 0.69332,0.72 1.43999,1.14667 2.24,1.28 0.79999,0.13333 1.82665,0.2 3.08,0.2 1.25332,0 2.70665,-0.21333 4.36,-0.64 l 0.76,2.36 c -1.78669,0.74666 -3.69335,1.12 -5.72,1.12 -1.92001,0 -3.25335,-0.13334 -4,-0.4 -0.74668,-0.26667 -1.33334,-0.49334 -1.76,-0.68 -0.42668,-0.18667 -0.81334,-0.50667 -1.16,-0.96 -0.32001,-0.45333 -0.58667,-0.84 -0.8,-1.16 -0.21334,-0.32 -0.40001,-0.84 -0.56,-1.56 -0.13334,-0.72 -0.24001,-1.32 -0.32,-1.8 -0.08,-0.50666 -0.13334,-1.28 -0.16,-2.32 -0.0533,-2.02666 -0.08,-3.93332 -0.08,-5.72 -1e-5,-1.78665 0.0133,-3.13332 0.04,-4.04 0.0267,-0.90665 0.08,-1.99998 0.16,-3.28 0.10666,-1.27998 0.27999,-2.18665 0.52,-2.72 0.23999,-0.55998 0.55999,-1.18664 0.96,-1.88 0.39999,-0.71998 0.91999,-1.19998 1.56,-1.44"
           style="font-variant:normal;font-weight:bold;font-stretch:normal;font-family:Strait;-inkscape-font-specification:Strait Bold"
           id="path5252"
           inkscape:connector-curvature="0" />
        <path
           d="m 152.50672,808.02753 -1.8,0 -0.52,-1.96 c -0.64001,0.72 -1.36001,1.28 -2.16,1.68 -0.80001,0.37333 -1.46668,0.58666 -2,0.64 -0.53334,0.08 -1.29334,0.12 -2.28,0.12 -0.96001,0 -1.81334,-0.17334 -2.56,-0.52 -0.74667,-0.34667 -1.30667,-0.86667 -1.68,-1.56 -0.58667,-1.12 -0.88,-2.62667 -0.88,-4.52 0,-2.39999 0.69333,-3.95999 2.08,-4.68 0.56,-0.26666 1.05333,-0.47999 1.48,-0.64 0.45333,-0.15999 1.11999,-0.27999 2,-0.36 0.90666,-0.08 1.66666,-0.11999 2.28,-0.12 0.63999,-0.0267 1.55999,-0.0533 2.76,-0.08 l 0,-3 c -1e-5,-1.38665 -0.29335,-2.31999 -0.88,-2.8 -0.58668,-0.50665 -1.65334,-0.75998 -3.2,-0.76 -1.54667,2e-5 -3.22667,0.29335 -5.04,0.88 l -0.64,-2 c 2.08,-1.01332 4.27999,-1.51998 6.6,-1.52 2.77332,2e-5 4.55999,0.56002 5.36,1.68 0.42665,0.61335 0.70665,1.25335 0.84,1.92 0.15998,0.66668 0.23998,1.53335 0.24,2.6 l 0,15 m -3.28,-5.6 0,-4.12 c -2.72001,10e-6 -4.34667,0.10667 -4.88,0.32 -0.50667,0.18667 -0.96001,0.38667 -1.36,0.6 -0.72001,0.37334 -1.08,1.10667 -1.08,2.2 l 0,0.92 c 0,1.30667 0.19999,2.22667 0.6,2.76 0.39999,0.53333 1.34666,0.8 2.84,0.8 1.51999,0 2.54666,-0.29333 3.08,-0.88 0.53332,-0.61333 0.79999,-1.48 0.8,-2.6"
           style="font-variant:normal;font-weight:bold;font-stretch:normal;font-family:Strait;-inkscape-font-specification:Strait Bold"
           id="path5254"
           inkscape:connector-curvature="0" />
        <path
           d="m 162.55047,808.02753 -3.28,0 0,-28.8 3.28,0 0,28.8"
           style="font-variant:normal;font-weight:bold;font-stretch:normal;font-family:Strait;-inkscape-font-specification:Strait Bold"
           id="path5256"
           inkscape:connector-curvature="0" />
        <path
           d="m 173.01922,808.02753 -3.28,0 0,-28.8 3.28,0 0,28.8"
           style="font-variant:normal;font-weight:bold;font-stretch:normal;font-family:Strait;-inkscape-font-specification:Strait Bold"
           id="path5258"
           inkscape:connector-curvature="0" />
        <path
           d="m 190.20797,780.02753 5.04,0 8.04,23.36 0.24,0 0,-23.36 3.36,0 0,28 -5.04,0 -8.04,-23.36 -0.24,0 0,23.36 -3.36,0 0,-28"
           style="font-variant:normal;font-weight:bold;font-stretch:normal;font-family:Strait;-inkscape-font-specification:Strait Bold"
           id="path5260"
           inkscape:connector-curvature="0" />
        <path
           d="m 222.91422,808.30753 c -0.64001,0.13333 -1.36001,0.2 -2.16,0.2 -0.80001,0 -1.52001,-0.0667 -2.16,-0.2 -0.64001,-0.10667 -1.20001,-0.22667 -1.68,-0.36 -0.48,-0.16 -0.90667,-0.41334 -1.28,-0.76 -0.34667,-0.37334 -0.64,-0.69333 -0.88,-0.96 -0.24,-0.29333 -0.44,-0.73333 -0.6,-1.32 -0.16,-0.58667 -0.28,-1.06667 -0.36,-1.44 -0.08,-0.4 -0.14667,-1 -0.2,-1.8 -0.0533,-0.8 -0.08,-1.42666 -0.08,-1.88 l 0,-4.32 c 0,-1.54666 0.0667,-2.62665 0.2,-3.24 0.13333,-0.63999 0.28,-1.25332 0.44,-1.84 0.16,-0.58665 0.36,-1.01332 0.6,-1.28 0.24,-0.29332 0.53333,-0.61332 0.88,-0.96 0.37333,-0.37332 0.8,-0.62665 1.28,-0.76 0.47999,-0.15998 1.03999,-0.29332 1.68,-0.4 0.63999,-0.13332 1.35999,-0.19998 2.16,-0.2 0.79999,2e-5 1.51999,0.0667 2.16,0.2 0.63999,0.10668 1.19999,0.24002 1.68,0.4 0.47999,0.13335 0.90665,0.38668 1.28,0.76 0.37332,0.34668 0.67999,0.66668 0.92,0.96 0.23998,0.26668 0.43998,0.69335 0.6,1.28 0.15998,0.58668 0.27998,1.06668 0.36,1.44 0.08,0.37335 0.14665,0.96001 0.2,1.76 0.0533,0.80001 0.08,1.42668 0.08,1.88 -2e-5,10e-6 -2e-5,1.44001 0,4.32 -2e-5,1.54667 -0.0667,2.64 -0.2,3.28 -0.13335,0.64 -0.28002,1.25333 -0.44,1.84 -0.16002,0.58667 -0.36002,1.02667 -0.6,1.32 -0.24001,0.26667 -0.54668,0.58666 -0.92,0.96 -0.37335,0.34666 -0.80001,0.6 -1.28,0.76 -0.48001,0.13333 -1.04001,0.25333 -1.68,0.36 m 1.72,-6.08 0,-9.16 c -1e-5,-0.66665 -0.0267,-1.15999 -0.08,-1.48 -0.0533,-0.31999 -0.18668,-0.67999 -0.4,-1.08 -0.21335,-0.42665 -0.60001,-0.71998 -1.16,-0.88 -0.56001,-0.15998 -1.30668,-0.23998 -2.24,-0.24 -0.93334,2e-5 -1.69334,0.08 -2.28,0.24 -0.56001,0.16002 -0.94667,0.45335 -1.16,0.88 -0.21334,0.40001 -0.34667,0.76001 -0.4,1.08 -0.0533,0.32001 -0.08,0.81335 -0.08,1.48 l 0,9.16 c -10e-6,0.66667 0.0267,1.16 0.08,1.48 0.0533,0.32 0.18666,0.69333 0.4,1.12 0.21333,0.4 0.59999,0.68 1.16,0.84 0.58666,0.16 1.34666,0.24 2.28,0.24 0.93332,0 1.67999,-0.08 2.24,-0.24 0.55999,-0.16 0.94665,-0.44 1.16,-0.84 0.21332,-0.42667 0.34665,-0.8 0.4,-1.12 0.0533,-0.32 0.08,-0.81333 0.08,-1.48"
           style="font-variant:normal;font-weight:bold;font-stretch:normal;font-family:Strait;-inkscape-font-specification:Strait Bold"
           id="path5262"
           inkscape:connector-curvature="0" />
        <path
           d="m 253.30297,808.02753 -4.96,0 -3.32,-17.76 -0.24,0 -3.28,17.76 -4.96,0 -3.96,-20.8 3.24,0 3.32,18.64 0.24,0 3.48,-18.64 4.12,0 3.48,18.64 0.24,0 3.32,-18.64 3.24,0 -3.96,20.8"
           style="font-variant:normal;font-weight:bold;font-stretch:normal;font-family:Strait;-inkscape-font-specification:Strait Bold"
           id="path5264"
           inkscape:connector-curvature="0" />
        <path
           d="m 273.7536,804.10753 c 0.21332,-0.0267 0.54666,-0.04 1,-0.04 0.45332,0 0.77332,0.0133 0.96,0.04 0.21332,0.0267 0.43999,0.10667 0.68,0.24 0.23999,0.13333 0.39999,0.36 0.48,0.68 0.10665,0.29333 0.15999,0.70667 0.16,1.24 -10e-6,0.53333 -0.0533,0.96 -0.16,1.28 -0.08,0.32 -0.24001,0.54666 -0.48,0.68 -0.24001,0.13333 -0.46668,0.21333 -0.68,0.24 -0.18668,0.0267 -0.50668,0.04 -0.96,0.04 -0.45334,0 -0.78668,-0.0133 -1,-0.04 -0.18668,-0.0267 -0.40001,-0.10667 -0.64,-0.24 -0.24001,-0.13334 -0.41334,-0.36 -0.52,-0.68 -0.08,-0.32 -0.12001,-0.74667 -0.12,-1.28 -10e-6,-0.53333 0.04,-0.94667 0.12,-1.24 0.10666,-0.32 0.27999,-0.54667 0.52,-0.68 0.23999,-0.13333 0.45332,-0.21333 0.64,-0.24 m 2.32,-3.24 -2.64,0 -0.48,-20.68 3.6,0 -0.48,20.68"
           style="font-variant:normal;font-weight:bold;font-stretch:normal;font-family:Strait;-inkscape-font-specification:Strait Bold"
           id="path5266"
           inkscape:connector-curvature="0" />
      </g>
      <text
         xml:space="preserve"
         style="font-size:40px;font-style:normal;font-weight:normal;line-height:125%;letter-spacing:0px;word-spacing:0px;fill:#ffd5f6;fill-opacity:1;stroke:none;font-family:Sans"
         x="84.734848"
         y="-817.80432"
         id="text5923"
         sodipodi:linespacing="125%"
         transform="scale(1,-1)"><tspan
           sodipodi:role="line"
           id="tspan5925"
           x="84.734848"
           y="-817.80432"
           style="font-style:normal;font-variant:normal;font-weight:bold;font-stretch:normal;fill:#ffd5f6;font-family:Strait;-inkscape-font-specification:Strait Bold">00-0000-0000</tspan></text>
    </g>
  </g>
</svg>
